# This file uses centimeters as units for non-parametric coordinates.

mtllib Halloween_house.mtl
g default
v -3.899265 3.888984 3.337518
v 4.861444 3.888985 3.337518
v -3.899265 4.415895 2.970061
v 4.861444 4.415895 2.970061
v -3.899265 4.253958 2.808077
v 4.861444 4.253958 2.808077
v -3.899265 4.253958 2.330560
v 4.861444 4.253958 2.330560
v -3.899265 4.649374 1.886026
v 4.861444 4.649374 1.886026
v -3.899265 6.955963 -0.096299
v 4.861444 6.955963 -0.096299
v -3.899265 4.451666 -2.045640
v 4.861444 4.451666 -2.045640
v -3.899265 4.122154 -2.391352
v 4.861444 4.122154 -2.391352
v -3.899265 4.166088 -2.846902
v 4.861444 4.166088 -2.846902
v -3.899265 4.425628 -3.000031
v 4.861444 4.425628 -3.000031
v -3.899265 3.835319 -3.253395
v 4.861444 3.835319 -3.253395
v -3.899265 3.523702 -2.846902
v 4.861444 3.523702 -2.846902
v -3.899265 3.479768 -2.391352
v 4.861444 3.479768 -2.391352
v -3.899265 3.809280 -2.045640
v 4.861444 3.809280 -2.045640
v -3.899265 6.313576 -0.096299
v 4.861444 6.313576 -0.096299
v -3.899265 4.006988 1.886026
v 4.861444 4.006988 1.886026
v -3.899265 3.611572 2.330560
v 4.861444 3.611572 2.330560
v -3.899265 3.611572 2.808077
v 4.861444 3.611572 2.808077
v -3.592374 0.000000 1.910653
v 4.480380 0.000000 1.910653
v -3.592374 1.337297 1.680772
v 4.480380 1.337297 1.680772
v -3.592374 2.674595 1.680772
v 4.480380 2.674595 1.680772
v -3.592374 4.011892 1.910653
v 4.480380 4.011892 1.910653
v -3.592374 6.303798 -0.098017
v 4.480380 6.303798 -0.098017
v -3.592374 4.011892 -2.106687
v 4.480380 4.011892 -2.106687
v -3.592374 2.674594 -1.876806
v 4.480380 2.674594 -1.876806
v -3.592374 1.337297 -1.876806
v 4.480380 1.337297 -1.876806
v -3.592374 0.000000 -2.106687
v 4.480380 0.000000 -2.106687
v -3.592374 0.000000 -0.098017
v 4.480380 0.000000 -0.098017
v -3.592374 1.337297 -0.098017
v -3.592374 2.674595 -0.098017
v -3.592374 0.000000 -2.106687
v 4.480380 0.000000 -2.106687
v 4.480380 0.000000 -0.098017
v -3.592374 0.000000 -0.098017
v 4.480380 1.337297 -1.876806
v 4.480380 1.337297 -0.098017
v 4.480380 0.000000 1.910653
v 4.480380 1.337297 1.680772
v 4.480380 2.674594 -1.876806
v 4.480380 2.674595 -0.098017
v 4.480380 2.674595 1.680772
v 4.480380 4.011892 -2.106687
v 4.480380 6.303798 -0.098017
v 4.480380 4.011892 1.910653
vt 0.375000 0.000000
vt 0.625000 0.000000
vt 0.375000 0.250000
vt 0.625000 0.250000
vt 0.375000 0.281250
vt 0.625000 0.281250
vt 0.375000 0.312500
vt 0.625000 0.312500
vt 0.375000 0.343750
vt 0.625000 0.343750
vt 0.375000 0.375000
vt 0.625000 0.375000
vt 0.375000 0.406250
vt 0.625000 0.406250
vt 0.375000 0.437500
vt 0.625000 0.437500
vt 0.375000 0.468750
vt 0.625000 0.468750
vt 0.375000 0.500000
vt 0.625000 0.500000
vt 0.375000 0.750000
vt 0.625000 0.750000
vt 0.375000 0.781250
vt 0.625000 0.781250
vt 0.375000 0.812500
vt 0.625000 0.812500
vt 0.375000 0.843750
vt 0.625000 0.843750
vt 0.375000 0.875000
vt 0.625000 0.875000
vt 0.375000 0.906250
vt 0.625000 0.906250
vt 0.375000 0.937500
vt 0.625000 0.937500
vt 0.375000 0.968750
vt 0.625000 0.968750
vt 0.375000 1.000000
vt 0.625000 1.000000
vt 0.875000 0.000000
vt 0.843750 0.000000
vt 0.812500 0.000000
vt 0.781250 0.000000
vt 0.750000 0.000000
vt 0.718750 0.000000
vt 0.687500 0.000000
vt 0.656250 0.000000
vt 0.875000 0.250000
vt 0.843750 0.250000
vt 0.812500 0.250000
vt 0.781250 0.250000
vt 0.750000 0.250000
vt 0.718750 0.250000
vt 0.687500 0.250000
vt 0.656250 0.250000
vt 0.125000 0.000000
vt 0.156250 0.000000
vt 0.187500 0.000000
vt 0.218750 0.000000
vt 0.250000 0.000000
vt 0.281250 0.000000
vt 0.312500 0.000000
vt 0.343750 0.000000
vt 0.125000 0.250000
vt 0.156250 0.250000
vt 0.187500 0.250000
vt 0.218750 0.250000
vt 0.250000 0.250000
vt 0.281250 0.250000
vt 0.312500 0.250000
vt 0.343750 0.250000
vt 0.375000 0.000000
vt 0.625000 0.000000
vt 0.625000 0.083333
vt 0.375000 0.083333
vt 0.625000 0.166667
vt 0.375000 0.166667
vt 0.625000 0.250000
vt 0.375000 0.250000
vt 0.625000 0.375000
vt 0.375000 0.375000
vt 0.625000 0.500000
vt 0.375000 0.500000
vt 0.625000 0.583333
vt 0.375000 0.583333
vt 0.625000 0.666667
vt 0.375000 0.666667
vt 0.625000 0.750000
vt 0.375000 0.750000
vt 0.375000 0.750000
vt 0.625000 0.750000
vt 0.625000 0.875000
vt 0.375000 0.875000
vt 0.375000 0.875000
vt 0.625000 0.875000
vt 0.625000 1.000000
vt 0.375000 1.000000
vt 0.750000 0.000000
vt 0.875000 0.000000
vt 0.875000 0.083333
vt 0.750000 0.083333
vt 0.625000 0.000000
vt 0.750000 0.000000
vt 0.625000 0.083333
vt 0.875000 0.166667
vt 0.750000 0.166667
vt 0.625000 0.166667
vt 0.875000 0.250000
vt 0.750000 0.250000
vt 0.625000 0.250000
vt 0.125000 0.000000
vt 0.250000 0.000000
vt 0.250000 0.083333
vt 0.125000 0.083333
vt 0.250000 0.166667
vt 0.125000 0.166667
vt 0.250000 0.250000
vt 0.125000 0.250000
vt 0.875000 0.000000
vt 0.875000 0.083333
vt 0.875000 0.166667
vt 0.875000 0.250000
vt 0.750000 0.250000
vn 0.000000 0.572020 0.820240
vn 0.000000 0.572020 0.820240
vn 0.000000 0.572020 0.820240
vn 0.000000 0.572020 0.820240
vn 0.000000 0.707210 -0.707004
vn 0.000000 0.707210 -0.707004
vn 0.000000 0.969403 -0.245475
vn 0.000000 0.969403 -0.245475
vn 0.000000 0.919054 0.394131
vn 0.000000 0.919054 0.394131
vn 0.000000 0.668212 0.743971
vn 0.000000 0.668212 0.743971
vn 0.000000 0.998738 -0.050223
vn 0.000000 0.998738 -0.050223
vn 0.000000 0.629367 -0.777108
vn 0.000000 0.629367 -0.777108
vn 0.000000 0.941960 -0.335724
vn 0.000000 0.941960 -0.335724
vn 0.000000 0.894935 0.446196
vn 0.000000 0.894935 0.446196
vn 0.000000 0.508150 0.861269
vn 0.000000 0.508150 0.861269
vn 0.000000 0.394413 -0.918933
vn 0.000000 0.394413 -0.918933
vn 0.000000 0.394413 -0.918933
vn 0.000000 0.394413 -0.918933
vn 0.000000 -0.793633 -0.608396
vn 0.000000 -0.793633 -0.608396
vn 0.000000 -0.924454 -0.381293
vn 0.000000 -0.924454 -0.381293
vn 0.000000 -0.941961 0.335724
vn 0.000000 -0.941961 0.335724
vn 0.000000 -0.629367 0.777108
vn 0.000000 -0.629367 0.777108
vn 0.000000 -0.998738 0.050223
vn 0.000000 -0.998738 0.050223
vn 0.000000 -0.668212 -0.743971
vn 0.000000 -0.668212 -0.743971
vn 0.000000 -0.919055 -0.394130
vn 0.000000 -0.919055 -0.394130
vn 0.000000 -0.964083 0.265601
vn 0.000000 -0.964083 0.265601
vn 0.000000 -0.885772 0.464121
vn 0.000000 -0.885772 0.464121
vn 1.000000 0.000000 0.000000
vn 1.000000 0.000000 0.000000
vn 1.000000 0.000000 0.000000
vn 1.000000 0.000000 0.000000
vn 1.000000 0.000000 0.000000
vn 1.000000 0.000000 0.000000
vn 1.000000 0.000000 0.000000
vn 1.000000 0.000000 0.000000
vn 1.000000 0.000000 0.000000
vn 1.000000 0.000000 0.000000
vn 1.000000 0.000000 0.000000
vn 1.000000 0.000000 0.000000
vn 1.000000 0.000000 0.000000
vn 1.000000 0.000000 0.000000
vn 1.000000 0.000000 0.000000
vn 1.000000 0.000000 0.000000
vn 1.000000 0.000000 0.000000
vn 1.000000 0.000000 0.000000
vn -1.000000 0.000000 0.000000
vn -1.000000 0.000000 0.000000
vn -1.000000 0.000000 0.000000
vn -1.000000 0.000000 0.000000
vn -1.000000 0.000000 0.000000
vn -1.000000 0.000000 0.000000
vn -1.000000 0.000000 0.000000
vn -1.000000 0.000000 0.000000
vn -1.000000 0.000000 0.000000
vn -1.000000 0.000000 0.000000
vn -1.000000 0.000000 0.000000
vn -1.000000 0.000000 0.000000
vn -1.000000 0.000000 0.000000
vn -1.000000 0.000000 0.000000
vn -1.000000 0.000000 0.000000
vn -1.000000 0.000000 0.000000
vn -1.000000 0.000000 0.000000
vn -1.000000 0.000000 0.000000
vn 0.000000 0.169415 0.985545
vn 0.000000 0.169415 0.985545
vn 0.000000 0.085634 0.996327
vn 0.000000 0.085634 0.996327
vn 0.000000 -0.085634 0.996327
vn 0.000000 -0.085634 0.996327
vn 0.000000 -0.169415 0.985545
vn 0.000000 -0.169415 0.985545
vn 0.000000 0.659109 0.752048
vn 0.000000 0.659109 0.752048
vn 0.000000 1.000000 0.000000
vn 0.000000 1.000000 0.000000
vn 0.000000 0.659109 -0.752048
vn 0.000000 0.659109 -0.752048
vn 0.000000 -0.169415 -0.985545
vn 0.000000 -0.169415 -0.985545
vn 0.000000 -0.085634 -0.996327
vn 0.000000 -0.085634 -0.996327
vn 0.000000 0.085634 -0.996327
vn 0.000000 0.085634 -0.996327
vn 0.000000 0.169415 -0.985545
vn 0.000000 0.169415 -0.985545
vn 0.000000 -1.000000 0.000000
vn 0.000000 -1.000000 0.000000
vn 0.000000 -1.000000 0.000000
vn 0.000000 -1.000000 0.000000
vn 0.000000 -1.000000 0.000000
vn 0.000000 -1.000000 0.000000
vn 0.000000 -1.000000 0.000000
vn 0.000000 -1.000000 0.000000
vn 1.000000 -0.000000 0.000000
vn 1.000000 -0.000000 0.000000
vn 1.000000 -0.000000 0.000000
vn 1.000000 -0.000000 0.000000
vn 1.000000 0.000000 0.000000
vn 1.000000 0.000000 0.000000
vn 1.000000 0.000000 0.000000
vn 1.000000 0.000000 0.000000
vn 1.000000 0.000000 0.000000
vn 1.000000 0.000000 0.000000
vn 1.000000 0.000000 0.000000
vn 1.000000 0.000000 0.000000
vn -1.000000 -0.000000 0.000000
vn -1.000000 0.000000 0.000000
vn -1.000000 0.000000 0.000000
vn -1.000000 -0.000000 0.000000
vn -1.000000 0.000000 0.000000
vn -1.000000 0.000000 0.000000
vn -1.000000 0.000000 0.000000
vn -1.000000 0.000000 0.000000
vn -1.000000 0.000000 0.000000
vn -1.000000 0.000000 0.000000
vn -1.000000 0.000000 0.000000
vn -1.000000 0.000000 0.000000
vn 0.000000 0.000000 0.000000
vn 0.000000 0.000000 0.000000
vn 0.000000 0.000000 0.000000
vn 0.000000 0.000000 0.000000
vn 0.000000 0.000000 0.000000
vn 0.000000 0.000000 0.000000
vn 0.000000 0.000000 0.000000
vn 0.000000 0.000000 0.000000
vn 0.000000 0.000000 0.000000
vn 0.000000 0.000000 0.000000
vn 0.000000 0.000000 0.000000
vn 0.000000 0.000000 0.000000
vn 0.000000 0.000000 0.000000
vn 0.000000 0.000000 0.000000
vn 0.000000 0.000000 0.000000
vn 0.000000 0.000000 0.000000
vn 0.000000 0.000000 0.000000
vn 0.000000 0.000000 0.000000
vn 0.000000 0.000000 0.000000
vn 0.000000 0.000000 0.000000
vn 0.000000 0.000000 0.000000
vn 0.000000 0.000000 0.000000
vn 0.000000 0.000000 0.000000
vn 0.000000 0.000000 0.000000
vn 0.000000 0.000000 0.000000
vn 0.000000 0.000000 0.000000
vn 0.000000 0.000000 0.000000
vn 0.000000 0.000000 0.000000
vn 0.000000 0.000000 0.000000
vn 0.000000 0.000000 0.000000
vn 0.000000 0.000000 0.000000
vn 0.000000 0.000000 0.000000
vn 0.000000 0.000000 0.000000
vn 0.000000 0.000000 0.000000
vn 0.000000 0.000000 0.000000
vn 0.000000 0.000000 0.000000
vn 0.000000 0.000000 0.000000
vn 0.000000 0.000000 0.000000
vn 0.000000 0.000000 0.000000
vn 0.000000 0.000000 0.000000
vn 0.000000 0.000000 0.000000
vn 0.000000 0.000000 0.000000
vn 0.000000 0.000000 0.000000
vn 0.000000 0.000000 0.000000
vn 0.000000 0.000000 0.000000
vn 0.000000 0.000000 0.000000
vn 0.000000 0.000000 0.000000
vn 0.000000 0.000000 0.000000
s off
g pCube7
usemtl initialShadingGroup
f 1/1/1 2/2/2 4/4/3 3/3/4
s 1
f 3/3/5 4/4/6 6/6/7 5/5/8
f 5/5/8 6/6/7 8/8/9 7/7/10
f 7/7/10 8/8/9 10/10/11 9/9/12
f 9/9/12 10/10/11 12/12/13 11/11/14
f 11/11/14 12/12/13 14/14/15 13/13/16
f 13/13/16 14/14/15 16/16/17 15/15/18
f 15/15/18 16/16/17 18/18/19 17/17/20
f 17/17/20 18/18/19 20/20/21 19/19/22
s off
f 19/19/23 20/20/24 22/22/25 21/21/26
s 2
f 21/21/27 22/22/28 24/24/29 23/23/30
f 23/23/30 24/24/29 26/26/31 25/25/32
f 25/25/32 26/26/31 28/28/33 27/27/34
f 27/27/34 28/28/33 30/30/35 29/29/36
f 29/29/36 30/30/35 32/32/37 31/31/38
f 31/31/38 32/32/37 34/34/39 33/33/40
f 33/33/40 34/34/39 36/36/41 35/35/42
f 35/35/42 36/36/41 2/38/43 1/37/44
s 3
f 24/40/45 22/39/46 20/47/47 18/48/48
f 26/41/49 24/40/45 18/48/48 16/49/50
f 28/42/51 26/41/49 16/49/50 14/50/52
f 30/43/53 28/42/51 14/50/52 12/51/54
f 32/44/55 30/43/53 12/51/54 10/52/56
f 34/45/57 32/44/55 10/52/56 8/53/58
f 36/46/59 34/45/57 8/53/58 6/54/60
f 2/2/61 36/46/59 6/54/60 4/4/62
s 4
f 21/55/63 23/56/64 17/64/65 19/63/66
f 23/56/64 25/57/67 15/65/68 17/64/65
f 25/57/67 27/58/69 13/66/70 15/65/68
f 27/58/69 29/59/71 11/67/72 13/66/70
f 29/59/71 31/60/73 9/68/74 11/67/72
f 31/60/73 33/61/75 7/69/76 9/68/74
f 33/61/75 35/62/77 5/70/78 7/69/76
f 35/62/77 1/1/79 3/3/80 5/70/78
s 5
f 37/71/81 38/72/82 40/73/83 39/74/84
f 39/74/84 40/73/83 42/75/85 41/76/86
f 41/76/86 42/75/85 44/77/87 43/78/88
s 6
f 43/78/89 44/77/90 46/79/91 45/80/92
f 45/80/92 46/79/91 48/81/93 47/82/94
s 7
f 47/82/95 48/81/96 50/83/97 49/84/98
f 49/84/98 50/83/97 52/85/99 51/86/100
f 51/86/100 52/85/99 54/87/101 53/88/102
s off
f 59/89/103 60/90/104 61/91/105 62/92/106
f 55/93/107 56/94/108 38/95/109 37/96/110
s 8
f 61/97/111 60/98/112 63/99/113 64/100/114
f 65/101/115 61/102/111 64/100/114 66/103/116
f 64/100/114 63/99/113 67/104/117 68/105/118
f 66/103/116 64/100/114 68/105/118 69/106/119
f 68/105/118 67/104/117 70/107/120 71/108/121
f 69/106/119 68/105/118 71/108/121 72/109/122
s 9
f 53/110/123 55/111/124 57/112/125 51/113/126
f 55/111/124 37/71/127 39/74/128 57/112/125
f 51/113/126 57/112/125 58/114/129 49/115/130
f 57/112/125 39/74/128 41/76/131 58/114/129
f 49/115/130 58/114/129 45/116/132 47/117/133
f 58/114/129 41/76/131 43/78/134 45/116/132
s off
f 53/88/135 54/87/136 60/90/137 59/89/138
f 56/94/139 55/93/140 62/92/141 61/91/142
f 55/93/143 53/88/144 59/89/145 62/92/146
f 54/118/147 52/119/148 63/99/149 60/98/150
f 38/72/151 56/97/152 61/102/153 65/101/154
f 40/73/155 38/72/156 65/101/157 66/103/158
f 52/119/159 50/120/160 67/104/161 63/99/162
f 42/75/163 40/73/164 66/103/165 69/106/166
f 50/120/167 48/121/168 70/107/169 67/104/170
f 48/121/171 46/122/172 71/108/173 70/107/174
f 46/122/175 44/77/176 72/109/177 71/108/178
f 44/77/179 42/75/180 69/106/181 72/109/182
